<svg xmlns="http://www.w3.org/2000/svg" enable-background="new 0 0 100 100" viewBox="0 0 100 100" id="double-chevron-left"><path d="M44.5 70c-1.28 0-2.56-.49-3.54-1.46l-15-15c-1.95-1.95-1.95-5.12 0-7.07l15-15c1.95-1.95 5.12-1.95 7.07 0s1.95 5.12 0 7.07L36.57 50l11.46 11.46c1.95 1.95 1.95 5.12 0 7.07C47.06 69.51 45.78 70 44.5 70zM71 70c-1.28 0-2.56-.49-3.54-1.46l-15-15c-1.95-1.95-1.95-5.12 0-7.07l15-15c1.95-1.95 5.12-1.95 7.07 0s1.95 5.12 0 7.07L63.07 50l11.46 11.46c1.95 1.95 1.95 5.12 0 7.07C73.56 69.51 72.28 70 71 70z"></path></svg>