<svg xmlns="http://www.w3.org/2000/svg" viewBox="0 0 64 64" id="MagicBook"><path d="M55.55,6a2.77,2.77,0,0,0-2.76-2.76h-35a9.37,9.37,0,0,0-9.37,9.37V51.42h0a9.38,9.38,0,0,0,9.37,9.37h35A2.76,2.76,0,0,0,55.55,58V56.7a2.77,2.77,0,0,0-2.76-2.76h-.26v-5h.26a2.76,2.76,0,0,0,2.76-2.75v-.71h0Zm-45.1,6.61a7.36,7.36,0,0,1,7.37-7.37h35a.76.76,0,0,1,.76.76v36.2a2.74,2.74,0,0,0-.76-.12h-35a9.36,9.36,0,0,0-7.37,3.61ZM50.53,53.94H17.82a2.52,2.52,0,0,1,0-5H50.53Zm3-7.79a.76.76,0,0,1-.76.75h-35a4.52,4.52,0,0,0,0,9h35a.76.76,0,0,1,.76.76V58a.76.76,0,0,1-.76.75h-35a7.37,7.37,0,0,1,0-14.74h35a.76.76,0,0,1,.76.76Zm-36.37-8.1V8.3a1,1,0,1,1,2,0V38.05a1,1,0,0,1-2,0Zm19.18-3.6A13.32,13.32,0,1,0,23.05,21.13,13.33,13.33,0,0,0,36.36,34.45Zm1.39-18.12H35l1.38-4.28Zm.65,2,1.26,3.87-3.3,2.4-3.29-2.4,1.26-3.87Zm1.91,5.87,1.39,4.28-3.64-2.64Zm1-3.23-.85-2.64H45Zm-6.7,4.87L31,28.48l1.39-4.28ZM30.9,31l5.46-4,5.46,4A11.28,11.28,0,0,1,30.9,31Zm13.2-1.67L42,23l5.46-4a10.69,10.69,0,0,1,.21,2.13A11.26,11.26,0,0,1,44.1,29.37Zm2.49-13H39.86L37.77,9.91A11.33,11.33,0,0,1,46.59,16.33ZM35,9.91l-2.09,6.42h-2a1,1,0,1,0,0,2h1.34L31.36,21l-5.51-4A11.34,11.34,0,0,1,35,9.91ZM25.25,19l5.46,4-2.08,6.4a11.26,11.26,0,0,1-3.58-8.24A11.48,11.48,0,0,1,25.25,19Zm0,17.82v1.89a1,1,0,0,1-2,0V36.82a1,1,0,0,1,2,0Zm3.47,0v1.89a1,1,0,0,1-2,0V36.82a1,1,0,0,1,2,0Zm6.92,0v1.89a1,1,0,0,1-2,0V36.82a1,1,0,0,1,2,0Zm3.47,0v1.89a1,1,0,0,1-2,0V36.82a1,1,0,0,1,2,0Zm3.46,0v1.89a1,1,0,1,1-2,0V36.82a1,1,0,1,1,2,0Zm6.92,0v1.89a1,1,0,0,1-2,0V36.82a1,1,0,0,1,2,0Z" fill="#db87fd" class="color000000 svgShape"></path></svg>