<svg xmlns="http://www.w3.org/2000/svg" viewBox="0 0 64 64" id="OnlineReading"><path d="M3 41a5 5 0 0 0 5 5h48a5 5 0 0 0 5-5v-3H3zm29-.33a1.5 1.5 0 1 1-1.5 1.5 1.5 1.5 0 0 1 1.5-1.5zM25 48v4h-8a1 1 0 0 0-1 1v4a1 1 0 0 0 1 1h30a1 1 0 0 0 1-1v-4a1 1 0 0 0-1-1h-8v-4zm31-37h-5v18a3 3 0 0 1-3 3h-7.53a16.22 16.22 0 0 0-7.17 1.7h-.18A3.12 3.12 0 0 1 32 34a3 3 0 0 1-1.32-.32A16.13 16.13 0 0 0 23.53 32H16a3 3 0 0 1-3-3V11H8a5 5 0 0 0-5 5v20h58V16a5 5 0 0 0-5-5z" fill="#cfcfcf" class="color000000 svgShape"></path><path d="M48 7h-7.53A20.15 20.15 0 0 0 33 8.46v23.17A18.21 18.21 0 0 1 40.47 30H48a1 1 0 0 0 1-1V8a1 1 0 0 0-1-1zM36 19h5v2h-5zm8 6h-8v-2h8zm0-8h-8v-2h8zM31 8.48v23.16A18 18 0 0 0 23.53 30H16a1 1 0 0 1-1-1V8a1 1 0 0 1 1-1h3v14a1 1 0 0 0 1.45.89l1.55-.77 1.55.77A1 1 0 0 0 25 21V7.06a20 20 0 0 1 6 1.42z" fill="#cfcfcf" class="color000000 svgShape"></path></svg>